Coordinates
version=1
nRows=37
nColumns=34
inDegrees=no

Units are S.I. units (second, meters, Newtons, ...)
If the header above contains a line with 'inDegrees', this indicates whether rotational values are in degrees (yes) or radians (no).

endheader
time	pelvis_tilt	pelvis_list	pelvis_rotation	pelvis_tx	pelvis_ty	pelvis_tz	hip_flexion_r	hip_adduction_r	hip_rotation_r	knee_angle_r	ankle_angle_r	subtalar_angle_r	mtp_angle_r	hip_flexion_l	hip_adduction_l	hip_rotation_l	knee_angle_l	ankle_angle_l	subtalar_angle_l	mtp_angle_l	lumbar_extension	lumbar_bending	lumbar_rotation	arm_flex_r	arm_add_r	arm_rot_r	elbow_flex_r	pro_sup_r	arm_flex_l	arm_add_l	arm_rot_l	elbow_flex_l	pro_sup_l
1.18	-0.0428191	0.0758977	-0.121498	1.08685	1.04249	-0.346667	0.481552	-0.0655252	-0.199181	0.200868	0.0448489	0.0410814	-0.0338139	-0.17222	0.06027	-0.394916	0.0294784	0.209331	0.451118	-0.0351231	-0.267495	-0.474784	-0.177123	-0.0883204	-0.172964	0.142173	0.816217	2.14087	0.366728	-0.538592	-0.0125178	1.0878	2.11616
1.19	-0.0447767	0.0804271	-0.119346	1.09684	1.04029	-0.3469	0.479427	-0.0629168	-0.201357	0.158617	0.059587	0.0904563	-0.0338227	-0.179008	0.0645511	-0.400349	0.0334433	0.215279	0.465019	-0.0351249	-0.268245	-0.471917	-0.176322	-0.087917	-0.17431	0.140467	0.813087	2.14079	0.361589	-0.535652	-0.0108028	1.0975	2.1156
1.2	-0.045852	0.0847768	-0.117172	1.10696	1.0381	-0.347117	0.476951	-0.0608917	-0.202345	0.122319	0.0736183	0.135424	-0.0338315	-0.186474	0.0683674	-0.406533	0.0386159	0.221705	0.479933	-0.0351268	-0.269884	-0.468564	-0.175434	-0.0870332	-0.175708	0.138586	0.809397	2.14072	0.355213	-0.532455	-0.00939964	1.10658	2.11447
1.21	-0.0459538	0.0888582	-0.115024	1.11724	1.03594	-0.34732	0.474351	-0.0595135	-0.201764	0.0933366	0.0865291	0.173656	-0.0338403	-0.194709	0.0716424	-0.413227	0.0450323	0.228557	0.495428	-0.0351287	-0.272458	-0.46462	-0.174438	-0.0856304	-0.177203	0.136603	0.805137	2.14064	0.347613	-0.528942	-0.00832513	1.11483	2.11299
1.22	-0.0450343	0.0925491	-0.112958	1.12769	1.03382	-0.347508	0.471816	-0.0587511	-0.199225	0.072722	0.0978421	0.203094	-0.0338491	-0.203779	0.0742621	-0.42015	0.0526911	0.235753	0.510988	-0.0351305	-0.275963	-0.459938	-0.1733	-0.0836689	-0.178833	0.13458	0.800296	2.14056	0.338793	-0.525056	-0.00761469	1.12201	2.11145
1.23	-0.0430881	0.0956894	-0.111031	1.1383	1.03175	-0.347674	0.469442	-0.0584526	-0.194399	0.0610435	0.106992	0.222173	-0.0338579	-0.213724	0.0760485	-0.427037	0.061581	0.243181	0.526111	-0.0351324	-0.280367	-0.45433	-0.171971	-0.0811105	-0.180624	0.132561	0.794849	2.14049	0.328754	-0.520752	-0.00730732	1.12792	2.11013
1.24	-0.0401366	0.0980823	-0.109283	1.14909	1.02974	-0.34781	0.467217	-0.0583416	-0.187105	0.0582865	0.113331	0.230003	-0.0338667	-0.224542	0.0767356	-0.433743	0.0717236	0.250719	0.540456	-0.0351343	-0.285614	-0.44756	-0.170396	-0.0779212	-0.182575	0.130569	0.788758	2.14042	0.317499	-0.516001	-0.00742929	1.1324	2.10929
1.25	-0.0361671	0.0994204	-0.10772	1.16007	1.02785	-0.347891	0.465043	-0.0580613	-0.177377	0.0638517	0.11618	0.226454	-0.0338755	-0.23616	0.0759983	-0.440243	0.0831823	0.258213	0.553852	-0.0351362	-0.291602	-0.439398	-0.168526	-0.0740775	-0.184663	0.128598	0.781969	2.14034	0.305044	-0.51079	-0.00798293	1.13529	2.10903
1.26	-0.0312548	0.0994407	-0.10633	1.17125	1.0261	-0.347905	0.462766	-0.0572062	-0.165499	0.076677	0.114918	0.212141	-0.0338843	-0.248453	0.0734713	-0.446568	0.0960552	0.265449	0.566217	-0.0351381	-0.298223	-0.429606	-0.166311	-0.0695708	-0.186832	0.126615	0.774408	2.14027	0.291418	-0.50512	-0.00894335	1.13648	2.10933
1.27	-0.0255229	0.0979229	-0.105076	1.18262	1.02449	-0.347836	0.460257	-0.0554003	-0.152011	0.0954278	0.109132	0.188345	-0.0338932	-0.26122	0.0688201	-0.452698	0.110452	0.272119	0.577423	-0.03514	-0.305334	-0.417995	-0.163711	-0.0644127	-0.188998	0.124542	0.765997	2.1402	0.276667	-0.498997	-0.0102627	1.13587	2.11001
1.28	-0.0191527	0.094734	-0.103906	1.19417	1.02306	-0.347677	0.457481	-0.0523625	-0.137666	0.118717	0.0987611	0.156865	-0.033902	-0.274172	0.0617986	-0.4585	0.126482	0.277808	0.587198	-0.0351419	-0.312749	-0.404464	-0.160697	-0.0586399	-0.191054	0.122259	0.756661	2.14012	0.260849	-0.492428	-0.0118863	1.1334	2.11084
1.29	-0.0123874	0.0898461	-0.102767	1.2059	1.02179	-0.347419	0.454521	-0.0479466	-0.123319	0.145289	0.0842094	0.119796	-0.0339108	-0.286928	0.0522826	-0.463746	0.144277	0.282018	0.595149	-0.0351438	-0.320238	-0.389025	-0.157251	-0.0523175	-0.192878	0.1196	0.746351	2.14004	0.24403	-0.485412	-0.0137689	1.129	2.11161
1.3	-0.00551397	0.0833413	-0.10161	1.2178	1.0207	-0.347059	0.451576	-0.0421678	-0.109823	0.174133	0.0664037	0.0793603	-0.0339196	-0.299014	0.0403012	-0.468088	0.163992	0.284184	0.60072	-0.0351457	-0.327538	-0.371819	-0.153371	-0.0455426	-0.19435	0.116358	0.735071	2.13995	0.226279	-0.477938	-0.0158844	1.1226	2.11219
1.31	0.00116675	0.0753993	-0.100396	1.22983	1.01979	-0.346597	0.44889	-0.0351739	-0.097899	0.204488	0.0467317	0.0376918	-0.0339284	-0.309882	0.0260123	-0.471137	0.185838	0.283729	0.603304	-0.0351476	-0.334366	-0.353095	-0.149073	-0.0384438	-0.19536	0.112298	0.722903	2.13985	0.20767	-0.469984	-0.0182278	1.11415	2.11251
1.32	0.0073686	0.0662688	-0.09909	1.24199	1.01904	-0.346035	0.446671	-0.0272022	-0.0880622	0.235768	0.0268932	-0.00329386	-0.0339372	-0.31894	0.00966675	-0.472514	0.210104	0.280107	0.602306	-0.0351495	-0.340451	-0.33317	-0.144396	-0.0311788	-0.195829	0.107177	0.710024	2.13974	0.18828	-0.461524	-0.0208119	1.1036	2.11256
1.33	0.0128491	0.0562224	-0.0976461	1.25427	1.01845	-0.345377	0.444988	-0.0185293	-0.0806109	0.26743	0.00867856	-0.0419826	-0.033946	-0.325586	-0.00843516	-0.471868	0.237148	0.272833	0.597193	-0.0351515	-0.345573	-0.31238	-0.139411	-0.0239262	-0.195714	0.100777	0.696716	2.13962	0.168203	-0.452529	-0.0236601	1.0909	2.11237
1.34	0.0174379	0.0455238	-0.0959855	1.26663	1.01803	-0.344636	0.443722	-0.00942719	-0.0756729	0.298864	-0.00627348	-0.0770851	-0.0339548	-0.32925	-0.0279804	-0.46886	0.26738	0.261499	0.587496	-0.0351534	-0.349584	-0.291033	-0.134226	-0.0168744	-0.195022	0.09293	0.683359	2.1395	0.147554	-0.442976	-0.0267972	1.07601	2.11201
1.35	0.0210566	0.034393	-0.093981	1.27907	1.01776	-0.34383	0.442538	-0.00011346	-0.0732565	0.329315	-0.016717	-0.10769	-0.0339635	-0.329432	-0.0486972	-0.46319	0.301225	0.245793	0.572875	-0.0351554	-0.352429	-0.26935	-0.128988	-0.010209	-0.193813	0.0835618	0.670409	2.13939	0.126488	-0.43285	-0.0302419	1.0589	2.11154
1.36	0.0237194	0.0229804	-0.0914513	1.29158	1.01766	-0.342988	0.440921	0.00926836	-0.0733092	0.357892	-0.0219563	-0.133282	-0.0339723	-0.325726	-0.0703769	-0.454612	0.339077	0.225504	0.553157	-0.0351573	-0.354152	-0.247438	-0.123874	-0.00409938	-0.192196	0.0727136	0.658362	2.1393	0.105197	-0.422154	-0.0340049	1.03956	2.11101
1.37	0.0255198	0.0113621	-0.0881679	1.30413	1.01771	-0.342145	0.438274	0.0186446	-0.0757562	0.383658	-0.0218953	-0.153737	-0.0339811	-0.317842	-0.0928637	-0.442932	0.381228	0.200514	0.528342	-0.0351593	-0.354881	-0.225303	-0.119079	0.00131332	-0.190329	0.0605639	0.647704	2.13925	0.0839186	-0.410903	-0.0380932	1.01799	2.11048
1.38	0.0266038	-0.000441823	-0.0838802	1.31672	1.01793	-0.341342	0.434036	0.0279928	-0.0805058	0.405773	-0.0169818	-0.169287	-0.0339899	-0.305602	-0.116023	-0.42802	0.427804	0.170799	0.498607	-0.0351612	-0.354797	-0.202877	-0.114794	0.00592689	-0.188402	0.0474307	0.638868	2.13925	0.0629164	-0.399136	-0.0425216	0.994265	2.10996
1.39	0.0271318	-0.0124367	-0.078358	1.3293	1.0183	-0.340621	0.427814	0.0373183	-0.087422	0.423638	-0.00807585	-0.18046	-0.0339987	-0.288935	-0.139698	-0.409829	0.47871	0.136437	0.464291	-0.0351632	-0.354094	-0.18008	-0.111171	0.00968395	-0.186621	0.0337529	0.632185	2.13931	0.0424696	-0.386913	-0.0473235	0.968527	2.10948
1.4	0.0272312	-0.0246235	-0.0714457	1.34184	1.01879	-0.340016	0.419485	0.0466466	-0.0962719	0.436996	0.00371043	-0.188024	-0.0340075	-0.267845	-0.163685	-0.38844	0.533611	0.097643	0.425891	-0.0351652	-0.352924	-0.156866	-0.108281	0.0125741	-0.18518	0.0200526	0.627862	2.13943	0.0228481	-0.374321	-0.0525589	0.941024	2.10903
1.41	0.0269477	-0.0369835	-0.0631193	1.3543	1.01939	-0.339546	0.409258	0.0560352	-0.106674	0.445964	0.0171672	-0.192913	-0.0340163	-0.242377	-0.18774	-0.36412	0.591947	0.0548348	0.384068	-0.0351672	-0.351354	-0.133273	-0.106071	0.0146336	-0.184246	0.00688548	0.625968	2.13958	0.00428699	-0.361483	-0.0583155	0.912124	2.10862
1.42	0.0262168	-0.0494893	-0.0535269	1.36663	1.02005	-0.339205	0.397662	0.0656099	-0.118074	0.450981	0.0311103	-0.196171	-0.034025	-0.212596	-0.211621	-0.337386	0.652991	0.00872017	0.339685	-0.0351691	-0.349327	-0.109425	-0.104334	0.0159414	-0.18393	-0.00521224	0.626434	2.13972	-0.0130427	-0.348563	-0.0647002	0.882332	2.10822
1.43	0.0248827	-0.0621082	-0.0429933	1.37879	1.02072	-0.338963	0.385449	0.0755632	-0.12977	0.452712	0.0444944	-0.198845	-0.0340338	-0.178618	-0.235125	-0.309017	0.715893	-0.0396236	0.293806	-0.0351711	-0.346684	-0.085534	-0.102713	0.0166134	-0.184278	-0.0157674	0.629074	2.13978	-0.0290603	-0.335766	-0.0718209	0.852273	2.10785
1.44	0.022809	-0.0747562	-0.0319635	1.39072	1.02135	-0.338771	0.373366	0.0860392	-0.14103	0.45194	0.0565629	-0.201795	-0.0340426	-0.140764	-0.258001	-0.279949	0.779668	-0.0887362	0.24763	-0.0351731	-0.343286	-0.061927	-0.100786	0.0167944	-0.185286	-0.024399	0.633614	2.13966	-0.0437901	-0.323316	-0.0797593	0.822659	2.10748
1.45	0.0199975	-0.0871907	-0.0209318	1.4024	1.02193	-0.338585	0.361931	0.096944	-0.151229	0.449489	0.0669857	-0.205463	-0.0340514	-0.0997104	-0.279794	-0.251115	0.843167	-0.136836	0.202337	-0.0351752	-0.339161	-0.0390938	-0.0981692	0.0166553	-0.186921	-0.0308352	0.639728	2.13925	-0.0573519	-0.311424	-0.0885346	0.794233	2.1071
1.46	0.0166443	-0.0990236	-0.0103822	1.41384	1.02245	-0.338367	0.351309	0.107941	-0.159919	0.446111	0.0758415	-0.209838	-0.0340602	-0.0565063	-0.299871	-0.223364	0.905139	-0.181915	0.159045	-0.0351772	-0.334543	-0.0176373	-0.0945677	0.0163833	-0.189137	-0.0349245	0.647064	2.13845	-0.0699464	-0.300275	-0.098068	0.767701	2.10673
1.47	0.0130965	-0.109792	-0.000753297	1.42504	1.02296	-0.338093	0.34133	0.118543	-0.166832	0.442393	0.0834933	-0.214559	-0.0340689	-0.0124557	-0.317541	-0.197437	0.964352	-0.221896	0.118804	-0.0351792	-0.329824	0.00181107	-0.0897848	0.016164	-0.19187	-0.0366497	0.655275	2.13718	-0.0818298	-0.290026	-0.108146	0.743677	2.10635
1.48	0.00977858	-0.119046	0.00759007	1.43604	1.02349	-0.337747	0.331565	0.128231	-0.171859	0.43871	0.0904407	-0.219073	-0.0340777	0.0310513	-0.332195	-0.173951	1.0197	-0.254859	0.0825761	-0.0351812	-0.325466	0.0186824	-0.0837105	0.0161623	-0.195035	-0.036132	0.664034	2.13544	-0.0932827	-0.280815	-0.118411	0.722629	2.10596
1.49	0.00710405	-0.126432	0.0143788	1.44685	1.02409	-0.337316	0.321452	0.13655	-0.175014	0.435218	0.0971877	-0.222786	-0.0340865	0.0727147	-0.343403	-0.153386	1.07031	-0.279282	0.0511803	-0.0351833	-0.321918	0.0325361	-0.0763135	0.0165101	-0.198527	-0.0336192	0.673047	2.13331	-0.10458	-0.272759	-0.128374	0.704844	2.10557
1.5	0.00539944	-0.131717	0.0194488	1.45752	1.02481	-0.336797	0.310412	0.143177	-0.176396	0.43189	0.10415	-0.225178	-0.0340953	0.111472	-0.350968	-0.136073	1.11553	-0.294247	0.0252329	-0.0351853	-0.31954	0.0431117	-0.0676311	0.0173026	-0.202223	-0.0294565	0.682061	2.13097	-0.115966	-0.265957	-0.13747	0.690422	2.10517
1.51	0.00486143	-0.134792	0.0227445	1.46807	1.02571	-0.336195	0.297958	0.147943	-0.176167	0.428578	0.111611	-0.225871	-0.0341041	0.146585	-0.354915	-0.122187	1.15498	-0.299522	0.00509573	-0.0351874	-0.318568	0.0503344	-0.0577572	0.0186033	-0.205994	-0.024041	0.690866	2.12874	-0.127637	-0.260488	-0.145127	0.679298	2.10477
1.52	0.00558889	-0.135678	0.0242953	1.47854	1.02679	-0.335516	0.283756	0.150813	-0.174516	0.42507	0.119715	-0.224643	-0.0341128	0.177662	-0.35544	-0.111769	1.1885	-0.29549	-0.00912945	-0.0351894	-0.319089	0.0542797	-0.0468302	0.0204518	-0.209715	-0.017767	0.699297	2.12691	-0.139734	-0.256404	-0.150827	0.671284	2.10438
1.53	0.00758566	-0.134486	0.0241869	1.48895	1.02809	-0.334768	0.267631	0.151843	-0.171636	0.421154	0.1285	-0.221404	-0.0341216	0.204601	-0.352829	-0.104757	1.21607	-0.282942	-0.017551	-0.0351915	-0.321078	0.0551175	-0.0350107	0.0228715	-0.21328	-0.0109646	0.707236	2.1257	-0.152344	-0.253737	-0.154169	0.666134	2.10398
1.54	0.0107958	-0.131362	0.0225261	1.49929	1.02958	-0.333956	0.249527	0.151133	-0.167691	0.416657	0.137938	-0.216157	-0.0341304	0.227476	-0.347373	-0.101035	1.23777	-0.262789	-0.0203933	-0.0351935	-0.32445	0.0530476	-0.0224499	0.0258762	-0.21661	-0.00387384	0.714607	2.12521	-0.165516	-0.252497	-0.15488	0.66361	2.10358
